<svg width="44" height="45" viewBox="0 0 44 45" fill="none" xmlns="http://www.w3.org/2000/svg">
<path d="M24.5 7.26729L24.5007 7.2687L27.7246 13.7165C27.7251 13.7175 27.7256 13.7184 27.726 13.7194C28.0135 14.3048 28.5101 14.8305 29.0483 15.2276C29.5878 15.6257 30.2369 15.9445 30.8782 16.0514L30.8786 16.0515L36.7265 17.0231C38.4672 17.3132 39.2845 18.0433 39.5114 18.7495C39.7379 19.4539 39.5 20.5193 38.2463 21.7645L38.2445 21.7663L33.6978 26.313C33.2004 26.8103 32.8494 27.4977 32.6523 28.186C32.4552 28.8747 32.3899 29.6424 32.543 30.3256L32.543 30.3257L32.5441 30.3306L33.8457 35.9584C34.3444 38.1226 33.9249 39.2392 33.3578 39.6526C32.7894 40.067 31.5933 40.1256 29.6779 38.9942L24.1972 35.7497C24.1971 35.7497 24.197 35.7496 24.1969 35.7496C23.558 35.371 22.7618 35.2049 22.0067 35.2049C21.2509 35.2049 20.4528 35.3713 19.8077 35.7467L19.8077 35.7467L19.8028 35.7496L14.3211 38.9946L14.3204 38.995C12.4179 40.1241 11.2208 40.0632 10.649 39.646C10.0778 39.2291 9.6561 38.1101 10.1539 35.959L10.1539 35.9589L11.4555 30.3306L11.4556 30.3306L11.4567 30.3256C11.6098 29.6424 11.5445 28.8747 11.3473 28.186C11.1503 27.4977 10.7992 26.8103 10.3018 26.313L5.75516 21.7663C4.50983 20.521 4.27002 19.4543 4.49554 18.7481C4.72083 18.0426 5.53324 17.3131 7.27313 17.0231L13.1211 16.0515L13.1237 16.051C13.7567 15.9436 14.4009 15.6239 14.9367 15.2266C15.4716 14.83 15.9679 14.3046 16.2553 13.7195L19.48 7.2701C19.4801 7.26991 19.4801 7.26971 19.4802 7.26952C20.306 5.62697 21.261 5.05704 21.9975 5.05704C22.7328 5.05704 23.6833 5.62544 24.5 7.26729Z" fill="#E8E8E8" stroke="#E8E8E8" stroke-width="1.5" stroke-linecap="round" stroke-linejoin="round"/>
<path d="M17.8194 21.6174C18.5071 21.6174 19.0646 21.0599 19.0646 20.3722C19.0646 19.6844 18.5071 19.127 17.8194 19.127C17.1317 19.127 16.5742 19.6844 16.5742 20.3722C16.5742 21.0599 17.1317 21.6174 17.8194 21.6174Z" fill="#C6C6C6"/>
<path d="M26.2745 21.6174C26.9622 21.6174 27.5197 21.0599 27.5197 20.3722C27.5197 19.6844 26.9622 19.127 26.2745 19.127C25.5868 19.127 25.0293 19.6844 25.0293 20.3722C25.0293 21.0599 25.5868 21.6174 26.2745 21.6174Z" fill="#C6C6C6"/>
<path d="M26.8643 26.8556C26.8589 26.8781 26.8576 26.8866 26.8554 26.8981L26.8495 26.9293L26.8387 26.9857C26.8311 27.0224 26.823 27.0561 26.8149 27.0907C26.7987 27.1582 26.7791 27.2238 26.7596 27.2888C26.7185 27.4161 26.6702 27.5409 26.615 27.6627C26.5044 27.9055 26.3687 28.136 26.2103 28.3507C25.8871 28.7822 25.4856 29.1491 25.0268 29.4323C24.7995 29.5712 24.5617 29.6923 24.3157 29.7943C24.0736 29.893 23.8247 29.9738 23.5708 30.036C23.0799 30.1554 22.5766 30.2158 22.0714 30.2159C21.5726 30.2211 21.0748 30.1698 20.5875 30.063L20.4011 30.0194C20.3391 30.0052 20.277 29.9848 20.2154 29.9677C20.1538 29.9506 20.0918 29.9335 20.0304 29.911L19.8465 29.8467C19.5999 29.7558 19.3607 29.6458 19.1313 29.5176C18.8987 29.3878 18.6778 29.2384 18.4708 29.0708C18.2636 28.901 18.0727 28.7122 17.9006 28.5069C17.8577 28.4557 17.8174 28.4017 17.7765 28.3496C17.7356 28.2974 17.6973 28.2416 17.6603 28.1861C17.5859 28.0748 17.5177 27.9595 17.4559 27.8408C17.3931 27.7213 17.3379 27.5981 17.2904 27.4718C17.2679 27.4078 17.2443 27.3426 17.2243 27.2749C17.2144 27.2398 17.2047 27.2074 17.1953 27.1694L17.1816 27.1125L17.1742 27.0811C17.1712 27.0687 17.1699 27.0615 17.1629 27.0372C17.1028 26.8675 17.1127 26.6808 17.1902 26.5183C17.2678 26.3558 17.4067 26.2307 17.5765 26.1706C17.7463 26.1105 17.9329 26.1204 18.0955 26.1979C18.258 26.2755 18.383 26.4144 18.4431 26.5842C18.4409 26.5725 18.4445 26.5775 18.4463 26.5777C18.4481 26.5779 18.4512 26.5808 18.4539 26.5831C18.4566 26.5853 18.4654 26.5927 18.4721 26.5993L18.5108 26.6379C18.5384 26.6654 18.5661 26.6939 18.5955 26.7218C18.6529 26.7787 18.7151 26.8342 18.7772 26.8877C18.9013 26.994 19.0325 27.0917 19.17 27.18C19.3054 27.2675 19.4461 27.3464 19.5913 27.4163C19.7372 27.4848 19.8867 27.5454 20.0392 27.5977C20.1941 27.6508 20.3517 27.6959 20.5113 27.7326C20.5929 27.7499 20.6732 27.7691 20.7571 27.7823C20.7986 27.7895 20.8389 27.7985 20.8814 27.8048L21.008 27.8232C21.3572 27.8701 21.7092 27.8921 22.0615 27.8891C22.4078 27.8898 22.7536 27.8634 23.0957 27.81C23.2582 27.7845 23.4193 27.7509 23.5785 27.7092C23.7347 27.6677 23.886 27.6171 24.0351 27.5613C24.332 27.4448 24.6128 27.2908 24.8705 27.1029C25.0028 27.0052 25.1286 26.8991 25.2471 26.7852C25.306 26.727 25.3654 26.6676 25.4207 26.6067L25.4621 26.5617L25.5016 26.5167L25.539 26.4745C25.5457 26.4673 25.5511 26.4619 25.5565 26.4565C25.5586 26.4539 25.5612 26.4517 25.5641 26.45C25.5664 26.45 25.5695 26.4448 25.568 26.4549C25.5943 26.3697 25.6371 26.2905 25.694 26.2219C25.7509 26.1532 25.8208 26.0964 25.8997 26.0548C25.9785 26.0131 26.0648 25.9874 26.1536 25.9791C26.2424 25.9708 26.3319 25.9801 26.4172 26.0064C26.5024 26.0327 26.5816 26.0755 26.6502 26.1324C26.7189 26.1894 26.7756 26.2592 26.8173 26.3381C26.8589 26.4169 26.8847 26.5032 26.893 26.592C26.9013 26.6808 26.892 26.7704 26.8657 26.8556H26.8643Z" fill="#C6C6C6"/>
</svg>
