<svg width="44" height="45" viewBox="0 0 44 45" fill="none" xmlns="http://www.w3.org/2000/svg">
<path d="M24.5 7.26729L24.5007 7.2687L27.7246 13.7165C27.7251 13.7175 27.7256 13.7186 27.7261 13.7196C28.0136 14.3049 28.5102 14.8306 29.0483 15.2276C29.5878 15.6257 30.2369 15.9445 30.8782 16.0514L30.8786 16.0515L36.7265 17.0231C38.4672 17.3132 39.2845 18.0433 39.5114 18.7495C39.7379 19.4539 39.5 20.5193 38.2463 21.7645L38.2445 21.7663L33.6978 26.313C33.2004 26.8103 32.8494 27.4977 32.6523 28.186C32.4552 28.8747 32.3899 29.6424 32.543 30.3257L32.543 30.3257L32.5441 30.3306L33.8457 35.9584C34.3444 38.1226 33.9249 39.2393 33.3578 39.6527C32.7894 40.067 31.5933 40.1256 29.6779 38.9942L24.1972 35.7497C23.5582 35.3711 22.7619 35.205 22.0067 35.205C21.2509 35.205 20.4528 35.3713 19.8077 35.7467L19.8077 35.7467L19.8028 35.7496L14.3211 38.9946L14.3204 38.995C12.4179 40.1241 11.2208 40.0632 10.649 39.646C10.0777 39.2291 9.6561 38.1101 10.1539 35.959L10.1539 35.9589L11.4555 30.3306L11.4556 30.3306L11.4567 30.3257C11.6098 29.6424 11.5445 28.8747 11.3473 28.186C11.1503 27.4977 10.7992 26.8103 10.3018 26.313L5.75516 21.7663C4.50983 20.521 4.27002 19.4543 4.49554 18.7481C4.72083 18.0426 5.53324 17.3131 7.27313 17.0231L13.1211 16.0515L13.1237 16.051C13.7567 15.9436 14.4009 15.6239 14.9367 15.2266C15.4716 14.83 15.9679 14.3046 16.2553 13.7195L19.48 7.2701C19.4801 7.26989 19.4802 7.26968 19.4803 7.26947C20.306 5.62696 21.261 5.05704 21.9975 5.05704C22.7328 5.05704 23.6833 5.62544 24.5 7.26729Z" fill="#E8E8E8" stroke="#E8E8E8" stroke-width="1.5" stroke-linecap="round" stroke-linejoin="round"/>
<path d="M17.671 21.6174C18.3586 21.6174 18.9161 21.0599 18.9161 20.3722C18.9161 19.6844 18.3586 19.127 17.671 19.127C16.9833 19.127 16.4258 19.6844 16.4258 20.3722C16.4258 21.0599 16.9833 21.6174 17.671 21.6174Z" fill="#C6C6C6"/>
<path d="M26.3878 21.6174C27.0754 21.6174 27.6329 21.0599 27.6329 20.3722C27.6329 19.6844 27.0754 19.127 26.3878 19.127C25.7001 19.127 25.1426 19.6844 25.1426 20.3722C25.1426 21.0599 25.7001 21.6174 26.3878 21.6174Z" fill="#C6C6C6"/>
<path d="M17.0233 29.3106C17.0286 29.2875 17.03 29.2787 17.0321 29.2671L17.0381 29.2351L17.049 29.1769C17.0564 29.1391 17.0645 29.1041 17.0722 29.0684C17.0886 28.9989 17.1083 28.931 17.1283 28.864C17.1696 28.7323 17.2184 28.6031 17.2743 28.4769C17.3868 28.2253 17.5251 27.9861 17.6869 27.763C18.017 27.313 18.4293 26.9296 18.9019 26.6328C19.1363 26.4864 19.382 26.359 19.6367 26.2517C19.8872 26.1477 20.1452 26.0625 20.4083 25.9968C20.9173 25.8705 21.4397 25.8064 21.9641 25.8058C22.4816 25.8001 22.998 25.8541 23.5032 25.9666L23.6965 26.013C23.7607 26.0283 23.8249 26.0494 23.8891 26.0675C24.0173 26.1027 24.1441 26.1493 24.2711 26.1947C24.5264 26.2902 24.7738 26.4058 25.0107 26.5405C25.2508 26.6767 25.4787 26.8335 25.6917 27.009C25.905 27.1862 26.1009 27.3832 26.2768 27.5975C26.4521 27.8115 26.6042 28.0436 26.7304 28.2898C26.7941 28.4137 26.8502 28.5414 26.8984 28.6721C26.9216 28.7384 26.9448 28.8058 26.9652 28.8758C26.9751 28.9117 26.9849 28.9453 26.9944 28.9845L27.0081 29.0432L27.0155 29.0756C27.0185 29.0881 27.0199 29.0958 27.0268 29.1203C27.0603 29.2078 27.0759 29.3011 27.0726 29.3947C27.0693 29.4883 27.0473 29.5803 27.0079 29.6653C26.9684 29.7502 26.9123 29.8264 26.8429 29.8892C26.7735 29.9521 26.6922 30.0004 26.6037 30.0313C26.5153 30.0622 26.4216 30.075 26.3281 30.069C26.2347 30.063 26.1434 30.0383 26.0596 29.9963C25.9759 29.9544 25.9014 29.8961 25.8406 29.8248C25.7798 29.7536 25.7339 29.6709 25.7056 29.5816C25.7077 29.5932 25.7042 29.5881 25.7022 29.5879C25.7001 29.5876 25.6971 29.5844 25.694 29.5821C25.691 29.5798 25.6825 29.5716 25.6755 29.5647L25.6354 29.5239C25.6069 29.4949 25.5784 29.465 25.548 29.4356C25.4891 29.376 25.4247 29.3178 25.361 29.2613C25.2333 29.1493 25.098 29.0463 24.9563 28.9528C24.8171 28.8604 24.6721 28.7773 24.5221 28.7038C24.3721 28.6315 24.2182 28.5676 24.0611 28.5121L23.9424 28.4716L23.821 28.4356C23.7816 28.4222 23.7396 28.4125 23.6983 28.4018C23.6571 28.3911 23.6172 28.3786 23.5748 28.3705C23.4907 28.3527 23.4081 28.332 23.3217 28.3181C23.2788 28.3105 23.2371 28.3012 23.1935 28.2949L23.063 28.2757C22.7027 28.2261 22.3392 28.2029 21.9755 28.2062C21.2363 28.2096 20.5497 28.31 19.9422 28.5539C19.6357 28.6771 19.3465 28.8395 19.0818 29.0371C18.9453 29.14 18.8157 29.2517 18.6938 29.3714C18.6333 29.4323 18.5721 29.4947 18.5153 29.5587L18.4726 29.6064L18.4319 29.6528L18.3931 29.6973C18.3864 29.7047 18.3806 29.7105 18.3751 29.7163C18.3728 29.719 18.3701 29.7213 18.3672 29.7232C18.3649 29.7232 18.3616 29.7288 18.363 29.7188C18.3089 29.8965 18.1865 30.0453 18.0227 30.1327C17.8589 30.2201 17.667 30.2388 17.4894 30.1847C17.3118 30.1307 17.1629 30.0082 17.0755 29.8444C16.9881 29.6806 16.9694 29.4887 17.0235 29.3111L17.0233 29.3106Z" fill="#C6C6C6"/>
</svg>
