<svg width="44" height="45" viewBox="0 0 44 45" fill="none" xmlns="http://www.w3.org/2000/svg">
<path d="M24.5 7.26729L24.5007 7.2687L27.7246 13.7165C27.7251 13.7175 27.7256 13.7186 27.7261 13.7196C28.0136 14.3049 28.5102 14.8306 29.0483 15.2276C29.5878 15.6257 30.2369 15.9445 30.8782 16.0514L30.8786 16.0515L36.7265 17.0231C38.4672 17.3132 39.2845 18.0433 39.5114 18.7495C39.7379 19.4539 39.5 20.5193 38.2463 21.7645L38.2445 21.7663L33.6978 26.313C33.2004 26.8103 32.8494 27.4977 32.6523 28.186C32.4552 28.8747 32.3899 29.6424 32.543 30.3257L32.543 30.3257L32.5441 30.3306L33.8457 35.9584C34.3444 38.1226 33.9249 39.2393 33.3578 39.6527C32.7894 40.067 31.5933 40.1256 29.6779 38.9942L24.1972 35.7497C23.5582 35.3711 22.7619 35.205 22.0067 35.205C21.2509 35.205 20.4528 35.3713 19.8077 35.7467L19.8077 35.7467L19.8028 35.7496L14.3211 38.9946L14.3204 38.995C12.4179 40.1241 11.2208 40.0632 10.649 39.646C10.0777 39.2291 9.6561 38.1101 10.1539 35.959L10.1539 35.9589L11.4555 30.3306L11.4556 30.3306L11.4567 30.3257C11.6098 29.6424 11.5445 28.8747 11.3473 28.186C11.1503 27.4977 10.7992 26.8103 10.3018 26.313L5.75516 21.7663C4.50983 20.521 4.27002 19.4543 4.49554 18.7481C4.72083 18.0426 5.53324 17.3131 7.27313 17.0231L13.1211 16.0515L13.1237 16.051C13.7567 15.9436 14.4009 15.6239 14.9367 15.2266C15.4716 14.83 15.9679 14.3046 16.2553 13.7195L19.48 7.2701C19.4801 7.26989 19.4802 7.26968 19.4803 7.26947C20.306 5.62696 21.261 5.05704 21.9975 5.05704C22.7328 5.05704 23.6833 5.62544 24.5 7.26729Z" fill="#E8E8E8" stroke="#E8E8E8" stroke-width="1.5" stroke-linecap="round" stroke-linejoin="round"/>
<path d="M17.232 21.6174C17.9197 21.6174 18.4772 21.0599 18.4772 20.3722C18.4772 19.6844 17.9197 19.127 17.232 19.127C16.5443 19.127 15.9868 19.6844 15.9868 20.3722C15.9868 21.0599 16.5443 21.6174 17.232 21.6174Z" fill="#C6C6C6"/>
<path d="M26.6964 21.6174C27.3841 21.6174 27.9416 21.0599 27.9416 20.3722C27.9416 19.6844 27.3841 19.127 26.6964 19.127C26.0087 19.127 25.4512 19.6844 25.4512 20.3722C25.4512 21.0599 26.0087 21.6174 26.6964 21.6174Z" fill="#C6C6C6"/>
<path d="M16.7456 28.4176C16.9666 28.3607 17.1873 28.3169 17.4082 28.2746C17.6292 28.2324 17.8499 28.1979 18.0708 28.1647C18.5125 28.0992 18.9542 28.0504 19.3958 28.0086C20.2794 27.9284 21.1627 27.8911 22.0463 27.8848C22.9299 27.8785 23.8132 27.9067 24.6965 27.9767C24.9175 27.994 25.1382 28.0139 25.3592 28.0383C25.5801 28.0628 25.8008 28.0887 26.0218 28.1181C26.2428 28.1476 26.4635 28.182 26.6844 28.2215C26.9054 28.2611 27.1261 28.3033 27.347 28.3585C27.5011 28.397 27.6379 28.4859 27.7357 28.6111C27.8334 28.7363 27.8865 28.8906 27.8865 29.0494C27.8865 29.2082 27.8334 29.3625 27.7357 29.4877C27.6379 29.6129 27.5011 29.7018 27.347 29.7403C27.1261 29.7954 26.9051 29.8385 26.6844 29.8772C26.4637 29.916 26.2428 29.9494 26.0218 29.9807C25.8008 30.0119 25.5801 30.0375 25.3592 30.0604C25.1382 30.0833 24.9175 30.1047 24.6965 30.1223C23.8132 30.192 22.9296 30.2195 22.0463 30.2139C21.163 30.2084 20.2794 30.1707 19.3958 30.0904C18.9542 30.0486 18.5125 29.9995 18.0708 29.9343C17.8499 29.9009 17.6289 29.8659 17.4082 29.8241C17.1875 29.7823 16.9666 29.7383 16.7456 29.6812C16.6056 29.645 16.4815 29.5633 16.393 29.4489C16.3044 29.3346 16.2563 29.194 16.2563 29.0494C16.2563 28.9047 16.3044 28.7642 16.393 28.6498C16.4815 28.5355 16.6056 28.4538 16.7456 28.4176Z" fill="#C6C6C6"/>
</svg>
