<svg width="44" height="45" viewBox="0 0 44 45" fill="none" xmlns="http://www.w3.org/2000/svg">
<path d="M24.5 7.26729L24.5007 7.2687L27.7246 13.7165C27.7251 13.7175 27.7256 13.7186 27.7261 13.7196C28.0136 14.3049 28.5102 14.8306 29.0483 15.2276C29.5878 15.6257 30.2369 15.9445 30.8782 16.0514L30.8786 16.0515L36.7265 17.0231C38.4672 17.3132 39.2845 18.0433 39.5114 18.7495C39.7379 19.4539 39.5 20.5193 38.2463 21.7645L38.2445 21.7663L33.6978 26.313C33.2004 26.8103 32.8494 27.4977 32.6523 28.186C32.4552 28.8747 32.3899 29.6424 32.543 30.3257L32.543 30.3257L32.5441 30.3306L33.8457 35.9584C34.3444 38.1226 33.9249 39.2393 33.3578 39.6527C32.7894 40.067 31.5933 40.1256 29.6779 38.9942L24.1972 35.7497C23.5582 35.3711 22.7619 35.205 22.0067 35.205C21.2509 35.205 20.4528 35.3713 19.8077 35.7467L19.8077 35.7467L19.8028 35.7496L14.3211 38.9946L14.3204 38.995C12.4179 40.1241 11.2208 40.0632 10.649 39.646C10.0777 39.2291 9.6561 38.1101 10.1539 35.959L10.1539 35.9589L11.4555 30.3306L11.4556 30.3306L11.4567 30.3257C11.6098 29.6424 11.5445 28.8747 11.3473 28.186C11.1503 27.4977 10.7992 26.8103 10.3018 26.313L5.75516 21.7663C4.50983 20.521 4.27002 19.4543 4.49554 18.7481C4.72083 18.0426 5.53324 17.3131 7.27313 17.0231L13.1211 16.0515L13.1237 16.051C13.7567 15.9436 14.4009 15.6239 14.9367 15.2266C15.4716 14.83 15.9679 14.3046 16.2553 13.7195L19.48 7.2701C19.4801 7.26989 19.4802 7.26968 19.4803 7.26947C20.306 5.62696 21.261 5.05704 21.9975 5.05704C22.7328 5.05704 23.6833 5.62544 24.5 7.26729Z" fill="#E8E8E8" stroke="#E8E8E8" stroke-width="1.5" stroke-linecap="round" stroke-linejoin="round"/>
<path d="M18.1114 21.6174C18.7991 21.6174 19.3566 21.0599 19.3566 20.3722C19.3566 19.6844 18.7991 19.127 18.1114 19.127C17.4237 19.127 16.8662 19.6844 16.8662 20.3722C16.8662 21.0599 17.4237 21.6174 18.1114 21.6174Z" fill="#C6C6C6"/>
<path d="M26.0265 21.6174C26.7142 21.6174 27.2716 21.0599 27.2716 20.3722C27.2716 19.6844 26.7142 19.127 26.0265 19.127C25.3388 19.127 24.7812 19.6844 24.7812 20.3722C24.7812 21.0599 25.3388 21.6174 26.0265 21.6174Z" fill="#C6C6C6"/>
<path d="M17.4959 26.1115C17.1655 26.1204 16.9717 26.4379 16.9717 27.2934C16.9717 30.1346 21.1387 30.2229 21.9485 30.2133C22.7242 30.224 26.9388 30.1501 26.9388 27.2936C26.9388 26.4644 26.7567 26.1406 26.4446 26.1134" fill="#C6C6C6"/>
</svg>
